<svg width="24" height="24" viewBox="0 0 24 24" fill="none" xmlns="http://www.w3.org/2000/svg">
<mask id="mask0_146_405" style="mask-type:alpha" maskUnits="userSpaceOnUse" x="0" y="0" width="24" height="24">
<rect width="24" height="24" fill="#D9D9D9"/>
</mask>
<g mask="url(#mask0_146_405)">
<path d="M2.85738 21C2.35452 21 1.92405 20.8042 1.56595 20.4125C1.20786 20.0208 1.02881 19.55 1.02881 19V5C1.02881 4.45 1.20786 3.97917 1.56595 3.5875C1.92405 3.19583 2.35452 3 2.85738 3H15.6574C16.1602 3 16.5907 3.19583 16.9488 3.5875C17.3069 3.97917 17.486 4.45 17.486 5V19C17.486 19.55 17.3069 20.0208 16.9488 20.4125C16.5907 20.8042 16.1602 21 15.6574 21H2.85738ZM2.85738 19H8.34309V5H2.85738V19ZM10.1717 19H15.6574V12H10.1717V19ZM10.1717 10H15.6574V5H10.1717V10Z" fill="#575757"/>
</g>
</svg>
