<svg width="11" height="30" viewBox="0 0 11 30" fill="none" xmlns="http://www.w3.org/2000/svg">
<path d="M5.64 29.64C4.27467 29.64 3.144 29.192 2.248 28.296C1.39467 27.3573 0.968 26.2267 0.968 24.904C0.968 23.5387 1.39467 22.408 2.248 21.512C3.144 20.616 4.27467 20.168 5.64 20.168C7.00533 20.168 8.11467 20.616 8.968 21.512C9.864 22.408 10.312 23.5387 10.312 24.904C10.312 26.2267 9.864 27.3573 8.968 28.296C8.11467 29.192 7.00533 29.64 5.64 29.64ZM5.64 9.864C4.27467 9.864 3.144 9.416 2.248 8.52C1.39467 7.58133 0.968 6.45067 0.968 5.128C0.968 3.76266 1.39467 2.632 2.248 1.736C3.144 0.839998 4.27467 0.391998 5.64 0.391998C7.00533 0.391998 8.11467 0.839998 8.968 1.736C9.864 2.632 10.312 3.76266 10.312 5.128C10.312 6.45067 9.864 7.58133 8.968 8.52C8.11467 9.416 7.00533 9.864 5.64 9.864Z" fill="#6C6C6C"/>
</svg>
