<svg width="619" height="636" viewBox="0 0 619 636" fill="none" xmlns="http://www.w3.org/2000/svg">
<path d="M210.849 485.334C216.475 483.362 222.239 481.799 228.095 480.658L228.804 483.23C228.883 483.533 229.07 483.798 229.33 483.976C229.591 484.153 229.907 484.233 230.221 484.199L253.408 481.527C259.786 467.131 271.498 445.321 271.666 444.987C271.498 439.543 271.666 434.967 271.666 429.757C258.403 434.633 233.866 443.885 221.041 449.797C220.751 449.982 220.527 450.252 220.4 450.569C220.273 450.887 220.249 451.235 220.333 451.567C220.333 451.567 220.569 452.402 220.873 453.604C214.595 453.604 195.796 452.702 191.274 456.944C190.571 457.914 190.225 459.093 190.295 460.284C190.025 464.893 192.354 500.698 196.066 511.219C197.99 516.73 202.04 516.129 204.808 510.852C208.011 502.904 210.067 494.55 210.916 486.036C210.916 485.601 210.815 485.635 210.849 485.334ZM206.968 455.441C211.085 455.107 212.368 455.174 221.21 454.907C222.796 460.852 226.07 473.076 227.758 479.322C221.803 480.235 215.925 481.586 210.174 483.364C208.382 474.151 207.31 464.816 206.968 455.441Z" fill="black"/>
<path d="M521.484 163.124C522.327 161.955 521.247 160.452 520.336 159.283C522.917 156.655 525.78 154.315 528.875 152.302C534.097 149.727 538.87 146.345 543.016 142.282C544.737 140.512 547.978 136.872 546.763 134.734C545.548 132.596 543.387 132.463 540.451 133.699C541.723 132.377 542.762 130.852 543.522 129.19C544.467 126.584 542.24 124.48 537.414 126.417C539.169 123.645 539.574 120.739 536.604 119.337C534.207 118.201 530.697 120.906 528.672 122.677C524.696 126.115 520.964 129.82 517.501 133.765C515.375 129.357 512 124.28 507.781 125.883C503.562 127.486 506.836 134.667 508.996 138.575L501.335 143.819C500.177 143.2 498.869 142.911 497.555 142.984C488.847 144.453 448.854 174.58 444.804 174.58C441.699 174.58 397.351 153.538 359.011 147.459C358.937 147.232 358.8 147.03 358.615 146.876C358.43 146.722 358.204 146.623 357.965 146.591C351.278 145.462 344.498 144.958 337.715 145.088C337.509 145.102 337.309 145.16 337.129 145.258C336.948 145.356 336.791 145.492 336.669 145.656H333.834C333.159 142.95 330.661 136.705 329.784 134.3C332.079 132.329 335.251 131.327 336.905 128.154C339.942 122.276 339.807 112.055 338.964 105.509C342.777 102.637 342.879 98.0273 342.001 93.3179C341.664 91.4141 340.617 87.1055 338.997 86.0367C338.086 85.4355 336.162 86.0367 334.509 86.6379C332.855 82.8303 332.855 84.5671 333.53 83.0307C333.843 82.3227 334.026 81.5648 334.07 80.7929C335.859 81.3273 339.571 77.7869 338.289 73.1109C337.617 71.437 336.792 69.8272 335.825 68.3013C336.298 67.1657 337.31 65.7963 334.137 61.6213C332.771 60.1628 330.997 59.1396 329.041 58.6821H327.489C326.369 57.0732 324.725 55.8939 322.831 55.3421C319.973 54.6208 316.942 55.0407 314.394 56.5111C313.719 57.0121 313.179 57.6801 312.504 58.1477C310.978 57.2307 309.227 56.7457 307.441 56.7457C305.656 56.7457 303.905 57.2307 302.379 58.1477C301.485 58.4947 300.672 59.0167 299.988 59.6825C299.303 60.3483 298.762 61.1441 298.396 62.0221C296.743 61.4575 294.988 61.2401 293.245 61.3839C291.502 61.5276 289.808 62.0294 288.271 62.8571C282.441 65.9859 278.08 71.2489 276.121 77.5197C276.067 78.4653 276.067 79.4132 276.121 80.3587H275.75C270.687 79.6239 264.241 91.5143 269.405 100.766C270.012 101.868 270.789 102.904 271.531 104.106C273.691 107.446 272.847 108.448 277.674 112.523C279.091 113.725 279.327 113.625 280.205 114.36C281.082 115.095 280.745 114.727 281.251 116.598C281.527 117.7 282.021 118.736 282.705 119.648C283.389 120.559 284.248 121.328 285.234 121.908C285.592 125.175 287 128.242 289.25 130.659C289.963 131.448 290.794 132.124 291.714 132.663C291.962 132.802 292.239 132.882 292.524 132.897C293.536 139.109 294.785 147.192 295.325 150.632L292.321 152.236C288.391 153.8 284.569 155.619 280.88 157.68C280.591 157.878 280.386 158.176 280.306 158.515C276.729 160.385 273.354 162.155 271.43 163.291C244.632 179.022 168.526 282.729 167.75 287.472C167.664 287.744 167.664 288.035 167.75 288.307C168.841 290.029 170.17 291.592 171.699 292.95C171.228 293.8 170.662 294.596 170.011 295.321C163.261 299.697 153.136 306.21 147.702 312.021C147.321 312.357 147.035 312.786 146.873 313.265C146.71 313.744 146.677 314.257 146.776 314.753C146.875 315.248 147.102 315.71 147.436 316.092C147.771 316.474 148.2 316.763 148.681 316.931C149.694 317.265 149.862 317.165 156.444 313.591C154.635 315.161 153.156 317.068 152.09 319.202C151.651 321.039 153.339 322.108 155.465 321.774C156.661 321.464 157.8 320.967 158.84 320.304C158.231 321.234 157.907 322.319 157.907 323.427C157.907 324.535 158.231 325.62 158.84 326.55C162.215 330.759 171.057 317.499 175.715 314.226C177.605 316.597 180.17 322.141 184.254 320.672C187.797 319.369 183.916 311.654 184.254 309.416C185.627 308.111 187.093 306.906 188.641 305.809C191.245 307.72 194.222 309.073 197.382 309.783C202.951 309.783 261.069 251.734 265.49 247.092C263.904 261.854 255.905 325.214 257.592 337.539C258.369 343.117 271.902 343.918 277.606 344.219C275.885 384.299 274.737 445.02 274.434 445.655C265.49 464.726 263.06 469.936 260.056 475.715C254.589 486.069 231.571 524.278 228.972 532.962C228.601 534.332 228.567 534.866 230.019 537.404C225.67 541.929 221.633 546.739 217.936 551.8C216.08 555.14 224.045 586.269 229.681 597.291C230.964 599.762 233.056 603.57 235.857 603.47C244.295 603.169 244.261 573.176 244.025 564.792C244.024 564.534 243.928 564.285 243.755 564.091C245.284 561.832 246.953 559.668 248.75 557.611C249.823 558.342 250.951 558.99 252.125 559.549C253.272 560.05 254.555 559.181 255.5 558.413C266.739 549.662 327.354 474.913 340.347 439.643C346.254 423.544 354.117 401.299 356.345 385.535C357.707 375.567 357.831 365.472 356.716 355.475C356.716 355.333 356.773 355.197 356.874 355.097C356.976 354.996 357.113 354.94 357.256 354.94C357.399 354.94 357.537 354.996 357.638 355.097C357.739 355.197 357.796 355.333 357.796 355.475C359.486 365.529 359.816 375.761 358.775 385.902C356.277 407.779 338.829 453.37 329.514 470.137C337.546 468.667 353.881 465.461 361.779 463.123C388.104 455.207 412.404 431.593 414.53 405.074C415.218 392.58 415.218 380.059 414.53 367.565C414.302 350.318 412.037 333.156 407.78 316.43C414.935 312.589 421.482 308.08 423.609 303.938C428.165 295.087 416.116 244.152 413.484 229.857C427.895 231.427 452.431 234.266 463.873 225.415C476.968 214.994 505.25 185.669 521.484 163.124ZM242.202 562.955C236.127 559.315 227.622 550.664 226.34 543.884C227.724 542.147 229.175 540.544 230.525 538.74C235.099 545.648 240.802 551.754 247.4 556.81C245.546 558.755 243.811 560.807 242.202 562.955ZM510.515 139.51C510.689 139.4 510.815 139.228 510.865 139.029C510.915 138.83 510.887 138.62 510.785 138.441C509.604 136.27 506.06 128.622 508.524 127.753C509.941 127.219 511.19 128.087 512.236 129.256C513.834 131.262 515.078 133.521 515.915 135.936C515.978 136.133 516.093 136.309 516.249 136.445C516.404 136.582 516.595 136.674 516.799 136.712C517.004 136.749 517.215 136.731 517.41 136.659C517.605 136.588 517.776 136.465 517.906 136.304C521.281 132.596 529.179 124.146 533.634 121.875C537.009 120.138 537.819 123.345 529.55 130.826C527.651 132.259 525.826 133.786 524.082 135.402C523.986 135.533 523.935 135.691 523.935 135.853C523.935 136.015 523.986 136.173 524.082 136.304C524.082 137.172 524.791 138.141 526.006 137.239C528.94 134.69 532.04 132.336 535.287 130.192C536.945 129.026 538.871 128.291 540.89 128.054C539.877 131.127 530.461 139.477 529.651 140.412C529.394 140.64 529.238 140.958 529.216 141.299C529.194 141.64 529.309 141.975 529.534 142.234C529.76 142.492 530.079 142.652 530.423 142.68C530.766 142.708 531.107 142.601 531.372 142.383C535.119 139.978 541.666 134.367 543.927 135.202C546.189 136.037 539.473 142.249 537.785 143.719C528.099 152.035 530.596 146.691 519.391 157.98C514.514 152.693 508.913 148.106 502.752 144.353L510.515 139.51ZM363.871 299.262C363.297 294.653 362.589 289.677 361.711 284.5L363.162 282.596C369.912 274.012 371.937 260.351 371.296 249.63C374.907 265.295 377.776 280.692 379.97 295.989L363.871 299.262ZM313.685 184.901C304.809 178.221 290.532 166.698 282.23 158.815L295.73 152.135C308.126 163.594 318.738 176.808 327.219 191.347C340.186 214.922 349.805 240.154 355.805 266.33L307.677 198.962L313.955 186.07C314.038 185.871 314.057 185.652 314.008 185.443C313.96 185.233 313.847 185.044 313.685 184.901ZM336.5 147.025C336.702 147.393 339.031 152.302 342.575 160.886C342.575 161.254 341.934 169.604 341.63 172.543C337.322 170.853 333.26 168.607 329.547 165.863C330.29 162.957 333.631 149.764 333.867 146.791L336.5 147.025ZM324.519 182.897C324.755 182.296 324.991 181.494 325.261 180.559L327.522 181.728C328.805 182.563 328.299 180.024 329.446 187.372C329.446 188.608 329.784 189.978 329.851 191.481C328.299 188.708 326.375 185.736 324.552 182.897H324.519ZM322.629 180.091C316.253 171.141 308.994 162.84 300.961 155.308L326.375 166.23C325.396 168.535 323.979 175.582 322.662 180.091H322.629ZM348.582 199.664C345.207 190.545 342.609 180.358 341.326 177.686C341.402 176.853 341.402 176.015 341.326 175.181C341.815 175.361 342.326 175.474 342.845 175.515C343.171 175.519 343.486 175.406 343.735 175.197C343.983 174.989 344.146 174.698 344.195 174.38C344.465 173.278 344.904 167.7 344.971 166.464C354.789 190.995 362.985 216.131 369.507 241.714C350.439 201.567 353.375 213.191 348.616 199.664H348.582ZM376.494 263.424C368.799 226.918 355.265 181.394 339.875 147.66C345.527 147.663 351.17 148.11 356.75 148.996C359.619 174.38 357.222 173.511 359.146 174.513C361.07 175.515 372.646 180.125 374.367 180.826C374.199 183.398 376.629 256.945 376.527 263.424H376.494ZM337.647 88.1743C339.407 91.9741 340.028 96.1935 339.436 100.332C339.161 101.385 338.597 102.342 337.805 103.097C337.013 103.851 336.025 104.374 334.951 104.606C333.877 104.838 332.759 104.77 331.722 104.411C330.685 104.051 329.768 103.414 329.075 102.57C327.465 99.2126 326.253 95.682 325.464 92.0487C326.375 90.8797 336.095 88.5417 337.647 88.1743ZM291.207 121.574C289.975 121.019 288.713 120.528 287.427 120.105C286.565 119.754 285.795 119.212 285.176 118.521C284.558 117.83 284.108 117.008 283.86 116.118C283.613 115.228 283.574 114.294 283.748 113.387C283.922 112.48 284.303 111.625 284.862 110.886C286.989 109.116 288.912 109.216 290.667 111.855C291.781 113.892 291.747 114.059 292.254 114.26C292.399 114.323 292.556 114.355 292.715 114.353C292.874 114.352 293.03 114.316 293.174 114.25C293.318 114.184 293.445 114.087 293.549 113.968C293.652 113.849 293.728 113.709 293.772 113.558C294.273 111.468 294.353 109.3 294.009 107.179C293.604 104.874 293.536 94.6539 293.604 94.3199C294.59 94.8342 295.697 95.0765 296.81 95.0213C302.919 94.7875 304.134 91.6813 306.564 89.1429C309.365 89.4101 309.939 90.7461 313.111 89.1429C314.597 88.3067 315.959 87.2728 317.161 86.0701C318.131 86.4632 319.068 86.9322 319.962 87.4729C321.985 88.4356 324.266 88.7312 326.471 88.3164C328.676 87.9016 330.689 86.7983 332.214 85.1683C332.585 85.8697 332.922 86.5711 333.226 87.3059C330.125 88.2583 327.205 89.7144 324.586 91.6145C324.012 92.3159 324.856 96.1235 325.059 97.0253C322.231 97.3773 319.496 98.2496 316.992 99.5971C316.486 97.8603 315.372 94.6205 313.617 93.7187C313.09 93.5588 312.525 93.5588 311.997 93.7187C308.96 94.1863 298.059 97.4261 296.742 99.1963C295.595 100.432 298.869 109.985 299.881 111.554C303.762 117.5 315.136 115.763 317.262 108.816C317.789 106.484 317.789 104.066 317.262 101.735C318.241 101.735 321.177 100.699 321.515 100.599C323.844 105.776 324.519 106.077 327.219 111.655C326.847 111.955 326.24 112.456 325.734 112.79C323.337 114.36 322.831 114.093 322.966 114.761C323.006 114.893 323.092 115.007 323.21 115.081C323.328 115.155 323.47 115.183 323.607 115.162C325.024 114.961 326.408 114.58 327.725 114.026C328.513 113.735 329.163 113.163 329.547 112.423C330.492 110.319 325.261 102.403 323.202 100.031C323.607 100.031 324.552 99.3633 325.261 98.9959C326.206 102.737 326.847 105.676 330.492 107.146C331.546 107.539 332.669 107.718 333.794 107.672C334.919 107.627 336.023 107.356 337.04 106.878C337.58 112.757 337.479 122.309 334.644 127.52C333.192 130.225 329.615 131.26 327.32 133.498C326.645 134.133 327.084 135.035 327.32 136.003C331.066 146.324 331.134 146.29 330.931 147.626C329.938 153.171 328.551 158.64 326.78 163.992C325.936 163.625 316.452 158.648 297.89 151.501C297.316 147.727 294.245 127.586 293.266 123.879C293.334 122.576 293.165 122.276 291.207 121.407V121.574ZM314.832 107.947C313.752 111.588 308.656 113.158 305.011 112.156C301.366 111.154 301.13 109.317 299.409 104.975C298.602 103.316 298.045 101.549 297.755 99.7307C298.869 98.5283 311.052 96.0567 312.571 95.8229C314.701 99.4293 315.501 103.656 314.832 107.78V107.947ZM182.769 308.481C181.486 309.717 183.207 313.758 183.477 317.265C183.477 317.566 183.477 318.868 183.275 318.968C181.419 319.57 179.697 316.797 178.651 315.127C177.605 313.457 176.559 311.186 174.905 311.787C171.53 313.357 163.7 323.644 160.629 324.713C159.076 321.774 167.952 313.391 168.256 312.923C168.386 312.708 168.455 312.462 168.453 312.212C168.452 311.961 168.382 311.716 168.25 311.503C168.117 311.289 167.928 311.116 167.704 311.001C167.479 310.886 167.226 310.835 166.974 310.852C166.366 310.852 165.961 311.387 165.016 312.222C162.142 314.998 158.852 317.319 155.262 319.102C158.517 315.407 162 311.916 165.691 308.648C165.874 308.462 166.002 308.231 166.062 307.98C166.062 307.98 165.354 306.21 163.97 306.911C162.012 307.98 152.495 313.424 149.491 314.827C149.086 314.56 149.322 314.159 149.491 313.758C154.25 307.98 164.712 300.966 171.125 296.524C171.878 295.757 172.504 294.877 172.981 293.918C177.422 298.008 182.16 301.77 187.156 305.174C185.617 306.173 184.151 307.278 182.769 308.481ZM261.305 338.841C260.562 338.374 260.022 337.94 259.921 337.338C258.065 323.711 268.392 246.49 268.224 243.451C268.224 243.273 268.188 243.096 268.118 242.932C268.048 242.768 267.945 242.619 267.816 242.494C267.688 242.37 267.535 242.272 267.367 242.207C267.199 242.142 267.02 242.11 266.84 242.115C265.119 242.115 268.156 242.115 225.159 282.863C222.324 285.502 200.656 306.009 197.045 307.379C192.084 307.011 173.42 292.282 170.382 287.639C176.255 275.882 247.467 179.156 272.105 164.36C273.995 163.224 277.235 161.454 280.779 159.584C282.004 160.727 283.325 161.766 284.727 162.69C292.557 170.038 303.459 179.189 311.727 186.07L305.281 198.728C305.183 198.896 305.132 199.086 305.132 199.279C305.132 199.473 305.183 199.663 305.281 199.831C357.627 274.146 356.851 273.311 357.189 273.311C360.544 290.483 362.631 307.875 363.432 325.348C363.432 330.057 363.432 329.656 363.635 329.322C363.837 328.988 363.635 329.556 363.635 329.556C355.467 338.374 274.636 346.59 261.305 338.841ZM447.875 228.187C432.586 230.291 415.306 227.152 411.965 227.018C410.108 218.114 406.408 209.687 401.097 202.269C401.016 202.161 400.897 202.087 400.763 202.062C400.63 202.037 400.491 202.063 400.376 202.135C400.261 202.207 400.178 202.319 400.142 202.449C400.107 202.579 400.123 202.717 400.186 202.837C402.144 206.778 408.691 223.778 410.311 227.92C409.805 229.523 425.566 294.019 421.111 302.703C417.129 310.552 393.942 320.438 385.572 323.277C383.918 304.683 381.213 286.195 377.472 267.9C378.62 258.281 377.135 201.1 376.696 179.958C376.683 179.712 376.6 179.475 376.457 179.274C376.314 179.073 376.116 178.916 375.886 178.822L360.732 172.509C360.664 164.572 360.157 156.644 359.214 148.762C397.047 155.242 441.125 176.651 444.804 176.684C450.136 176.684 489.759 146.624 497.96 145.422C501.605 144.854 517.265 158.381 519.088 162.122C503.09 184.233 474.976 213.291 461.949 223.344C457.752 226.121 452.907 227.788 447.875 228.187Z" fill="black"/>
<path d="M311.356 101.267C311.314 101.048 311.229 100.839 311.105 100.652C310.981 100.466 310.822 100.305 310.635 100.179C310.449 100.054 310.239 99.9656 310.018 99.9202C309.797 99.8747 309.57 99.8728 309.348 99.9145C309.126 99.9561 308.915 100.041 308.727 100.163C308.538 100.285 308.376 100.443 308.249 100.628C308.122 100.812 308.033 101.02 307.987 101.239C307.941 101.457 307.939 101.682 307.981 101.902C308.656 105.242 308.791 106.01 310.276 106.01C310.557 106.011 310.833 105.943 311.081 105.811C311.328 105.68 311.538 105.489 311.692 105.257C311.847 105.025 311.94 104.758 311.964 104.482C311.987 104.205 311.941 103.927 311.829 103.672C311.727 103.138 311.424 101.568 311.356 101.267ZM321.684 123.378C323.877 124.013 325.97 122.977 325.902 122.443C325.835 121.908 325.902 122.176 322.932 121.073C320.941 120.339 318.747 117.733 317.971 118.134C317.195 118.535 318.376 120.673 318.646 121.073C319.368 122.158 320.438 122.969 321.684 123.378ZM383.412 91.648C378.991 109.985 375.751 125.549 375.211 128.655C374.853 130.007 374.784 131.417 375.009 132.797C376.797 136.571 399.916 144.019 402.852 142.55C405.789 141.08 413.416 124.079 422.292 106.544C427.73 106.716 433.171 106.325 438.526 105.375C444.165 104.352 449.652 102.635 454.861 100.265C466.269 95.0548 478.756 72.7436 480.444 61.5212C481.709 49.337 479.102 37.0657 472.985 26.4178C444.669 -22.1792 361.61 3.97297 368.36 57.9474C370.287 70.2977 375.481 81.9242 383.412 91.648ZM404 131.427C404 131.962 403.392 131.895 400.625 131.427C394.964 130.723 389.484 128.991 384.459 126.317C382.096 125.048 381.455 124.781 381.691 124.213C381.927 123.645 382.434 123.846 386.079 124.848C386.416 124.848 396.879 128.188 399.882 129.223C403.764 130.96 404 130.96 404 131.427ZM403.392 77.0856C406.996 77.2705 410.588 76.5344 413.821 74.948C416.826 76.3887 420.077 77.261 423.406 77.5198C417.736 87.974 406.227 109.283 402.515 120.639L388.205 116.731C391.58 108.515 399.039 89.2766 403.325 77.0856H403.392ZM402.211 74.3134C399.692 73.9367 397.367 72.7526 395.593 70.9427C393.819 69.1327 392.694 66.7969 392.39 64.2934C391.445 57.6134 395.765 50.1318 402.279 51.902C406.362 53.0042 406.869 56.2106 406.16 60.252C405.552 63.1912 403.359 70.5726 402.144 74.1798L402.211 74.3134ZM411.391 66.2974C411.752 64.1118 412.58 62.0278 413.821 60.1852C414.412 59.1807 415.275 58.3602 416.313 57.8171C417.351 57.2739 418.522 57.0297 419.694 57.1124C422.191 57.8472 423.271 62.5232 421.212 65.4624C419.234 68.0608 416.771 70.2603 413.956 71.942C412.988 71.3795 412.216 70.5371 411.746 69.5281C411.275 68.5191 411.128 67.3917 411.324 66.2974H411.391ZM380.375 23.846C395.495 5.84337 423.946 -1.30423 444.5 6.11057C455.666 9.90361 465.057 17.5837 470.926 27.7204C476.745 37.8525 479.234 49.5254 478.047 61.1204C476.495 71.5078 464.547 93.0842 454.051 97.8604C444.455 102.192 433.984 104.295 423.44 104.006C422.292 104.006 421.077 104.006 420.639 104.808C418.647 108.816 415.002 116.564 411.425 123.846C408.955 122.665 406.393 121.682 403.764 120.906C407.679 109.818 420.031 88.0408 425.904 77.4864C430.992 77.9178 436.107 77.0435 440.754 74.948C442.009 74.2939 443.05 73.299 443.755 72.08C444.459 70.8611 444.797 69.4686 444.73 68.066C444.663 66.6634 444.192 65.3089 443.374 64.1615C442.557 63.0141 441.425 62.1213 440.112 61.588C434.881 59.0496 430.19 65.1284 427.456 70.2386C426.714 71.5746 425.87 73.1444 424.925 74.9146C422.195 74.737 419.503 74.1863 416.926 73.278C419.493 71.4929 421.769 69.3303 423.676 66.8652C424.745 65.2682 425.286 63.3824 425.226 61.468C425.165 59.5536 424.506 57.705 423.339 56.1772C422.422 55.1234 421.148 54.4368 419.756 54.2462C418.365 54.0556 416.95 54.374 415.779 55.1418C413.415 56.5791 411.521 58.6609 410.324 61.1374C409.126 63.6139 408.677 66.3798 409.029 69.103C409.396 70.6401 410.232 72.028 411.425 73.0776C409.211 73.9849 406.835 74.4394 404.439 74.4136C405.789 70.4724 407.982 63.3582 408.556 60.4524C408.916 58.7957 408.996 57.0915 408.792 55.409C408.531 53.9646 407.854 52.6256 406.842 51.5532C405.83 50.4807 404.527 49.7203 403.089 49.3636C394.887 47.059 388.846 56.0436 390.027 64.427C390.361 67.4313 391.664 70.2492 393.743 72.4631C395.822 74.677 398.567 76.1691 401.57 76.7182C397.25 88.7422 390.5 108.148 387.125 116.431L379.7 114.527C384.459 90.8798 385.032 91.4476 384.357 91.147C376.689 81.471 371.782 69.9372 370.149 57.747C369.353 51.7024 369.853 45.5599 371.615 39.719C373.376 33.8781 376.361 28.4698 380.375 23.846ZM427.22 75.115C429.582 70.8732 434.307 61.588 438.897 63.8592C439.815 64.2252 440.615 64.8325 441.21 65.6153C441.805 66.3982 442.172 67.327 442.272 68.3014C442.205 74.1798 432.957 75.2152 427.085 75.115H427.22ZM556.415 89.8444C560.482 87.4773 565.286 86.6691 569.915 87.5732C575 87.6632 579.857 89.6753 583.491 93.1966C587.124 96.718 589.259 101.482 589.456 106.511C586.398 104.755 582.823 104.095 579.331 104.641C570.86 105.375 559.79 109.918 561.275 118.001C562.49 124.681 571.4 123.779 578.15 121.975C584.9 120.172 590.266 116.898 591.65 110.452C599.851 116.364 601.775 126.718 602.112 136.838C602.112 136.98 602.169 137.116 602.271 137.216C602.372 137.316 602.509 137.373 602.652 137.373C602.796 137.373 602.933 137.316 603.034 137.216C603.136 137.116 603.192 136.98 603.192 136.838C603.429 125.516 601.37 114.427 592.021 107.981C592.117 105.081 591.618 102.192 590.553 99.4884C589.488 96.7852 587.88 94.3239 585.826 92.2536C583.772 90.1834 581.315 88.5472 578.603 87.4441C575.891 86.3411 572.981 85.7941 570.05 85.8364C565.365 85.1593 560.588 86.1284 556.55 88.5752C555.301 89.1764 555.875 90.0782 556.415 89.8444ZM587.195 113.792C583.381 118.735 572.581 121.307 567.586 120.472C565.73 120.172 564.211 119.403 563.806 117.5C562.591 110.82 574.235 107.179 581.187 106.945C584.019 106.73 586.842 107.447 589.22 108.983C588.965 110.729 588.268 112.383 587.195 113.792ZM540.958 50.7998C544.569 46.391 542.139 38.709 532.047 38.6756C528.132 38.6756 526.242 42.6168 526.512 46.391C527.12 55.3756 537.346 55.1084 540.958 50.7998ZM528.875 46.224C528.875 44.0196 529.921 41.1472 532.25 41.1806C537.684 41.1806 540.181 43.6856 540.181 46.4578C540.046 52.7704 528.436 56.0436 528.875 46.224ZM527.491 424.88C497.825 413.156 484.055 469.903 459.822 518.667C459.669 520.717 459.737 522.777 460.025 524.813C460.025 529.923 460.599 563.757 463.602 567.598C464.412 569.134 467.821 567.598 469.407 566.629C482.88 558.376 495.576 548.941 507.342 538.44C507.443 538.326 507.519 538.194 507.565 538.05C507.611 537.906 507.628 537.755 507.612 537.605C513.89 528.754 537.414 482.662 543.117 459.549C547.1 443.183 543.151 430.992 527.491 424.88ZM538.089 467.298C522.207 465.284 506.851 460.32 492.83 452.669C500.727 437.872 510.481 421.005 526.58 427.351C544.501 434.399 544.13 448.995 538.089 467.198V467.298ZM481.929 554.138C480.892 553.278 479.76 552.538 478.554 551.933C473.993 549.639 468.724 549.137 463.805 550.531C463.467 546.556 461.544 520.704 461.544 520.47C486.822 529.622 479.026 525.648 504.069 537.972C501.436 540.444 491.547 547.291 481.929 554.071V554.138ZM499.344 457.478C502.635 459.258 506.015 460.874 509.469 462.321C501.733 474.347 494.897 486.916 489.016 499.93C483.346 511.653 483.549 511.586 477.777 524.378C474.402 523.31 471.027 522.308 467.652 521.306C471.297 514.125 497.217 461.62 499.344 457.411V457.478ZM479.094 524.712C490.062 505.24 501.234 481.025 510.819 462.755C514.194 464.158 517.569 465.294 520.944 466.296C519.155 469.636 513.924 478.52 512.54 481.092C511.156 483.664 497.285 510.718 496.306 512.789C494.754 516.129 490.501 525.447 489.185 528.42C485.742 526.917 482.435 525.781 478.959 524.646L479.094 524.712ZM490.4 528.854C492.459 525.147 500.93 509.582 501.976 507.578C503.562 504.472 521.247 468.701 522.226 466.63C525.331 467.498 528.605 468.233 530.697 468.634C524.521 485.334 506.735 517.498 500.322 533.363C494.484 530.658 493.167 529.99 490.265 528.787L490.4 528.854ZM492.459 453.637L498.5 456.977C486.325 477.495 475.721 498.886 466.775 520.972L461.712 519.435C481.321 478.086 482.232 472.675 492.324 453.57L492.459 453.637ZM506.364 536.269L501.267 533.864C506.769 523.176 523.981 495.755 531.845 468.868C533.735 469.202 535.591 469.502 537.38 469.736C528.707 492.638 518.293 514.857 506.229 536.202L506.364 536.269ZM400.625 557.945C401.97 556.843 402.932 555.351 403.374 553.679C403.816 552.007 403.716 550.24 403.089 548.627C402.802 546.3 401.724 544.138 400.031 542.498C398.338 540.859 396.131 539.838 393.774 539.605C391.417 539.371 389.05 539.939 387.062 541.215C385.075 542.491 383.585 544.398 382.839 546.623C378.519 543.851 373.827 540.911 369.339 538.106C372.714 533.663 382.636 535.634 383.649 539.275C383.671 539.416 383.749 539.544 383.867 539.628C383.984 539.713 384.13 539.748 384.273 539.726C384.416 539.703 384.545 539.626 384.63 539.51C384.716 539.394 384.751 539.249 384.729 539.108C384.222 533.296 372.005 529.889 367.077 536.736C362.724 534.098 357.324 530.891 352.801 528.453C356.682 525.113 365.356 526.984 366.301 530.457C366.346 530.576 366.431 530.675 366.543 530.737C366.654 530.8 366.785 530.821 366.91 530.796C367.036 530.772 367.149 530.705 367.229 530.606C367.309 530.507 367.351 530.383 367.347 530.257C366.909 524.846 355.602 521.205 350.472 527.151C348.323 525.959 346.063 524.974 343.722 524.211C343.295 524.036 342.825 523.987 342.37 524.07C341.915 524.152 341.494 524.364 341.157 524.679C332.619 535.2 303.83 562.521 290.532 565.694C290.198 565.744 289.883 565.88 289.619 566.089C289.355 566.298 289.151 566.571 289.027 566.883C288.904 567.195 288.866 567.533 288.917 567.863C288.968 568.194 289.106 568.506 289.317 568.767C292.237 571.7 295.581 574.188 299.24 576.148C295.865 579.488 293.232 582.494 291.275 584.665C290.262 585.734 289.722 606.175 290.6 610.684C290.731 611.125 291.018 611.505 291.41 611.753C295.662 614.625 350.439 638.072 356.041 634.932C359.787 632.828 404.506 586.77 405.215 585.367C406.295 583.162 405.924 568.466 405.856 562.588C405.586 560.818 402.245 558.914 400.625 557.945ZM292.625 602.067V594.619C306.631 601.299 338.694 614.926 350.844 618.733C353.949 619.735 354.219 619.602 355.839 618.733C365.12 612.855 397.891 576.315 403.899 570.738V577.785C385.674 595.854 354.725 627.518 354.151 625.714C350.81 625.514 295.527 603.403 292.625 602.067ZM399.781 546.69C400.995 548.713 401.646 551.017 401.671 553.37C401.659 554.118 401.474 554.854 401.128 555.52C400.783 556.186 400.288 556.764 399.68 557.211C396.845 555.34 391.479 551.867 385.134 547.792C388.61 541.012 396.339 540.911 399.646 546.69H399.781ZM291.781 568.066C306.159 563.857 333.462 537.805 342.642 526.516C344.852 527.124 346.981 527.988 348.987 529.088C345.612 535.3 349.224 542.114 350.506 541.145C351.215 540.611 349.932 540.41 349.73 537.137C349.644 534.746 350.191 532.374 351.316 530.257C355.974 532.662 361.441 535.801 366.065 538.44C363.23 544.686 366.639 550.865 367.82 549.963C369.001 549.061 367.28 549.261 367.077 545.988C366.995 543.842 367.411 541.705 368.292 539.742C373.051 542.515 377.911 545.387 382.366 548.092C381.68 549.757 381.407 551.56 381.572 553.35C381.736 555.14 382.333 556.865 383.311 558.38C383.356 558.437 383.411 558.484 383.474 558.52C383.537 558.556 383.606 558.579 383.678 558.589C383.75 558.598 383.824 558.593 383.894 558.574C383.964 558.556 384.03 558.524 384.087 558.48C384.145 558.436 384.193 558.381 384.23 558.319C384.266 558.257 384.289 558.188 384.299 558.116C384.308 558.045 384.303 557.973 384.284 557.903C384.266 557.834 384.233 557.769 384.189 557.712C383.582 556.385 383.283 554.94 383.312 553.484C383.341 552.028 383.698 550.597 384.357 549.295C392.221 554.038 398.566 558.012 400.524 559.315C400.152 559.649 364.951 590.644 352.97 599.862C345.106 597.825 303.83 577.551 291.781 568.066ZM293.064 586.669C308.352 593.349 343.081 608.847 351.08 610.35C352.464 610.617 353.004 610.717 355.636 608.647C366.875 599.729 403.426 561.887 403.764 562.287C403.78 562.387 403.78 562.488 403.764 562.588V569.268C396.237 575.247 354.387 618.733 353.712 616.663C350.337 616.663 295.494 594.518 292.692 593.283C292.625 591.88 292.929 588.139 293.064 586.669ZM354.522 632.695C351.147 634.598 299.746 613.924 292.861 609.715C292.603 607.587 292.479 605.446 292.49 603.303C307.272 610.517 350.27 628.486 354.219 628.319C359.99 628.019 400.794 582.561 403.696 579.388C403.73 581.094 403.56 582.798 403.19 584.465C402.616 585.567 356.75 631.459 354.522 632.695ZM74.9037 444.419C75.1399 447.993 75.3087 451.099 75.3087 454.005C75.3087 454.447 75.4865 454.872 75.8029 455.185C76.1194 455.499 76.5486 455.675 76.9962 455.675C77.4437 455.675 77.873 455.499 78.1894 455.185C78.5059 454.872 78.6837 454.447 78.6837 454.005C78.6837 450.898 78.5149 447.826 78.2787 444.185C78.2474 443.742 78.0395 443.33 77.7009 443.038C77.3623 442.747 76.9206 442.601 76.4731 442.632C76.0255 442.663 75.6087 442.869 75.3144 443.204C75.0201 443.539 74.8724 443.976 74.9037 444.419ZM589.152 377.452C588.932 377.464 588.717 377.521 588.518 377.617C588.32 377.713 588.144 377.848 587.999 378.013C587.854 378.178 587.744 378.37 587.676 378.578C587.607 378.785 587.582 379.004 587.6 379.222C587.802 382.295 588.005 385.601 588.005 388.808C588.005 389.251 588.183 389.675 588.499 389.989C588.816 390.302 589.245 390.478 589.692 390.478C590.14 390.478 590.569 390.302 590.886 389.989C591.202 389.675 591.38 389.251 591.38 388.808C591.38 385.468 591.177 382.128 590.941 378.988C590.928 378.77 590.872 378.557 590.774 378.361C590.677 378.165 590.541 377.99 590.374 377.847C590.208 377.704 590.014 377.595 589.804 377.527C589.594 377.459 589.372 377.434 589.152 377.452ZM66.1624 436.102C66.61 436.102 67.0392 435.926 67.3557 435.613C67.6721 435.3 67.8499 434.875 67.8499 434.432C67.8499 433.989 67.6721 433.564 67.3557 433.251C67.0392 432.938 66.61 432.762 66.1624 432.762C62.0787 432.762 58.6699 433.063 55.2949 432.996C54.8442 432.996 54.4114 433.171 54.0896 433.483C53.7678 433.795 53.5825 434.22 53.5737 434.666C53.5737 435.109 53.7515 435.534 54.0679 435.847C54.3844 436.16 54.8136 436.336 55.2612 436.336C58.7374 436.403 62.5512 436.269 66.1624 436.102ZM578.69 367.565C574.64 367.565 571.231 367.799 567.822 367.833C567.375 367.833 566.946 368.009 566.629 368.322C566.313 368.635 566.135 369.06 566.135 369.503C566.135 369.945 566.313 370.37 566.629 370.683C566.946 370.997 567.375 371.173 567.822 371.173C571.467 371.173 575.247 371.173 578.892 370.905C579.34 370.879 579.759 370.677 580.056 370.345C580.354 370.013 580.506 369.578 580.479 369.135C580.452 368.692 580.248 368.278 579.913 367.984C579.577 367.689 579.137 367.539 578.69 367.565ZM73.9924 415.461C74.1949 418.534 74.3974 421.84 74.3974 425.047C74.4061 425.487 74.5866 425.907 74.9013 426.218C75.2159 426.53 75.6401 426.708 76.0849 426.717C76.5325 426.717 76.9617 426.541 77.2782 426.228C77.5946 425.914 77.7724 425.49 77.7724 425.047C77.7724 421.707 77.5699 418.367 77.3674 415.227C77.3361 414.784 77.1283 414.372 76.7896 414.081C76.451 413.789 76.0094 413.643 75.5618 413.674C75.1143 413.705 74.6975 413.911 74.4032 414.246C74.1088 414.581 73.9611 415.018 73.9924 415.461ZM590.469 359.85C590.469 356.51 590.266 353.17 590.03 350.03C589.999 349.587 589.791 349.175 589.452 348.884C589.114 348.592 588.672 348.446 588.224 348.477C587.777 348.508 587.36 348.714 587.066 349.049C586.771 349.384 586.624 349.821 586.655 350.264C586.857 353.337 587.06 356.644 587.06 359.85C587.06 360.293 587.238 360.718 587.554 361.031C587.871 361.344 588.3 361.52 588.747 361.52C589.198 361.52 589.631 361.345 589.953 361.033C590.275 360.721 590.46 360.296 590.469 359.85ZM98.8999 435.668C99.1216 435.659 99.3394 435.608 99.5408 435.516C99.7422 435.424 99.9234 435.293 100.074 435.132C100.224 434.971 100.341 434.782 100.418 434.576C100.494 434.369 100.529 434.151 100.52 433.931C100.486 433.494 100.286 433.086 99.9605 432.789C99.635 432.491 99.2079 432.327 98.7649 432.328C94.6812 432.495 91.2724 432.629 87.8637 432.562C87.4161 432.562 86.9869 432.738 86.6704 433.051C86.354 433.364 86.1762 433.789 86.1762 434.232C86.1762 434.675 86.354 435.099 86.6704 435.413C86.9869 435.726 87.4161 435.902 87.8637 435.902C91.4749 435.969 95.2549 435.835 98.8999 435.668ZM611.427 367.131C608.052 367.298 604.306 367.398 600.56 367.398C600.337 367.389 600.115 367.425 599.906 367.503C599.698 367.581 599.507 367.701 599.347 367.853C599.186 368.006 599.058 368.19 598.971 368.393C598.883 368.596 598.838 368.814 598.839 369.035C598.839 369.481 599.015 369.909 599.331 370.228C599.646 370.546 600.076 370.73 600.526 370.738C604.374 370.738 607.479 370.738 611.562 370.471C611.784 370.463 612.002 370.411 612.203 370.319C612.405 370.227 612.586 370.096 612.736 369.935C612.887 369.774 613.004 369.585 613.08 369.379C613.157 369.173 613.191 368.954 613.182 368.734C613.141 368.3 612.939 367.896 612.615 367.6C612.291 367.305 611.868 367.137 611.427 367.131ZM21.3424 336.704C21.7812 337.038 116.956 323.077 121.04 320.605C121.266 320.442 121.447 320.224 121.565 319.973C121.683 319.722 121.734 319.445 121.715 319.169C121.715 314.86 116.011 274.413 113.277 264.326C112.94 263.09 112.602 261.854 111.826 261.42C106.662 258.347 15.6724 275.315 10.2387 278.788C10.0914 278.874 9.96418 278.99 9.86531 279.128C9.76644 279.266 9.69815 279.424 9.66493 279.59C8.51743 283.631 18.4062 334.7 21.3424 336.704ZM11.7237 280.391C18.2037 277.486 100.79 262.522 110.24 263.691C112.535 269.536 118.677 312.355 119.082 318.634C114.391 320.004 22.6249 335.602 22.2874 335.668C21.9499 335.735 21.9162 336.136 21.2074 334.032C18.2374 325.214 11.5549 287.94 11.7237 280.391Z" fill="black"/>
<path d="M128.465 323.577C128.649 323.24 128.731 322.857 128.701 322.475C128.701 317.165 121.006 258.214 118.272 253.504C118.058 253.157 117.755 252.872 117.393 252.679C117.032 252.485 116.625 252.39 116.214 252.402C104.907 251.033 9.53001 269.469 3.25251 273.778C2.37501 274.379 2.51 275.882 2.61125 277.485C3.15125 286.27 12.7363 344.052 16.1113 343.718C16.4825 343.718 16.3475 343.45 15.47 345.221C10.205 355.942 0.215007 390.277 0.417507 397.191C0.417507 400.097 1.0925 403.871 3.995 403.671C24.8188 401.132 126.912 385.1 156.275 379.122C157.422 378.888 158.165 377.852 158.131 376.149C157.785 373.311 156.915 370.56 155.566 368.033C151.449 360.384 134.371 330.09 128.465 323.577ZM16.3138 342.682C13.6813 339.342 3.995 281.794 4.7375 275.415C12.1625 271.607 106.257 253.604 116.112 255.074C118.812 262.422 125.799 315.495 126.237 321.874C114.29 325.949 31.5688 339.175 16.3138 342.682ZM17.7988 343.684C20.6338 342.983 117.192 326.984 126.035 324.68C130.861 329.122 152.664 367.498 154.081 370.772C134.709 374.112 19.79 393.116 2.88125 395.655C3.1175 385.534 13.6138 350.164 17.7988 343.684Z" fill="black"/>
<path d="M30.4888 378.32C33.425 377.886 95.7276 370.471 118.239 364.426C118.378 364.391 118.496 364.302 118.569 364.18C118.642 364.058 118.663 363.912 118.627 363.775C118.591 363.637 118.502 363.52 118.378 363.448C118.255 363.376 118.108 363.355 117.969 363.391C113.548 364.292 59.615 371.407 30.4213 377.285C30.3406 377.271 30.2578 377.275 30.1789 377.297C30.1 377.319 30.0273 377.358 29.9661 377.412C29.905 377.466 29.8571 377.533 29.826 377.608C29.7949 377.683 29.7815 377.764 29.7868 377.845C29.7921 377.926 29.8159 378.005 29.8565 378.076C29.897 378.146 29.9533 378.206 30.0209 378.252C30.0885 378.298 30.1658 378.328 30.2469 378.34C30.328 378.352 30.4107 378.345 30.4888 378.32ZM76.0175 145.923C74.7568 148.741 73.6967 151.643 72.845 154.607C72.7948 155.083 72.9274 155.56 73.2163 155.943C76.625 161.02 111.556 199.998 120.669 205.475C121.918 206.244 123.403 206.778 124.314 205.676C130.933 197.524 139.572 191.207 149.39 187.339C157.381 184.541 165.759 182.976 174.23 182.697C180.98 182.095 182.161 181.427 184.76 177.052C187.826 171.294 191.893 166.116 196.775 161.755C203 156.368 209.91 151.809 217.329 148.194C217.663 148.007 217.924 147.715 218.071 147.364C218.217 147.013 218.241 146.623 218.139 146.257C216.998 143.384 215.489 140.668 213.65 138.174C214.865 137.774 216.215 137.406 216.215 136.204C216.215 132.864 186.785 90.7131 178.618 82.7639C177.774 81.9289 176.559 80.8267 175.445 80.8935C158.57 81.8287 142.134 97.5935 132.616 111.354C121.715 110.953 114.661 109.985 102.241 115.162C93.4733 118.845 85.5683 124.28 79.0213 131.127C78.0088 132.162 71.1238 139.377 71.0225 139.945C70.9213 140.512 71.1238 140.512 76.0175 145.923ZM211.018 144.988C196.944 147.359 187.966 158.949 181.351 171.541C178.415 177.152 178.685 177.419 175.58 177.353C170.15 177.048 164.704 177.25 159.313 177.954C155.358 178.539 151.47 179.501 147.703 180.826C139.13 183.832 129.309 193.451 124.078 200.599C123.966 200.746 123.825 200.868 123.663 200.957C123.501 201.047 123.321 201.101 123.137 201.117C122.952 201.132 122.766 201.109 122.59 201.049C122.415 200.988 122.255 200.892 122.12 200.766C111.151 189.577 91.745 169.938 81.9913 158.649C81.5188 158.148 82.3288 157.413 82.8013 157.947C89.1126 164.627 105.414 180.626 122.896 198.027C128.803 190.579 137.915 181.561 146.926 178.421C151.84 176.687 156.953 175.565 162.148 175.081C167.012 174.716 171.897 174.716 176.761 175.081C178.753 172.81 188.608 147.025 210.95 144.153C211.015 144.201 211.069 144.262 211.107 144.333C211.145 144.404 211.167 144.482 211.17 144.563C211.173 144.643 211.158 144.723 211.126 144.796C211.094 144.87 211.045 144.936 210.984 144.988H211.018ZM175.411 83.5989C182.161 88.2749 209.634 128.522 213.211 135.569C207.004 137.516 201.011 140.078 195.324 143.218C189.939 145.889 185.223 149.716 181.522 154.42C177.82 159.123 175.225 164.584 173.926 170.405C161.81 150.9 144.901 129.424 133.663 113.625C134.338 113.191 153.305 84.9015 175.411 83.5989ZM102.984 116.999C115.303 112.089 122.12 113.225 132.313 113.659C142.438 130.76 160.629 154.874 172.61 170.673C161.552 168.083 149.915 169.667 139.974 175.115C134 178.455 126.71 186.471 122.221 191.447C115.741 186.304 78.3463 146.892 72.3388 140.212C81.5863 129.858 90.1251 122.076 102.984 116.865V116.999ZM41.2213 201.935C40.3871 201.356 39.401 201.028 38.3826 200.993C37.3641 200.957 36.3572 201.215 35.4838 201.735C34.8478 202.015 34.2739 202.417 33.7948 202.918C33.3158 203.418 32.941 204.006 32.6918 204.65C32.4427 205.294 32.3241 205.979 32.3427 206.668C32.3614 207.357 32.517 208.036 32.8007 208.665C33.0843 209.295 33.4905 209.863 33.9959 210.337C34.5014 210.811 35.0962 211.182 35.7465 211.428C36.3968 211.675 37.0899 211.792 37.786 211.774C38.4821 211.755 39.1678 211.601 39.8038 211.32C40.8198 211.101 41.7443 210.58 42.4547 209.829C43.1651 209.077 43.6279 208.129 43.7816 207.111C43.9354 206.093 43.7728 205.053 43.3156 204.129C42.8583 203.204 42.128 202.439 41.2213 201.935ZM38.9938 208.615C36.6313 209.35 35.2138 208.615 34.64 207.479C33.56 205.108 34.9101 201.467 38.4201 202.536C40.8838 203.438 42.8751 207.546 38.9938 208.782V208.615ZM212.84 49.0967C213.819 51.0673 218.375 50.3325 220.366 49.6979C221.413 49.3639 222.088 48.9965 222.189 47.9945C222.493 45.4895 222.83 23.7795 221.683 21.6753C221.564 21.4546 221.382 21.2735 221.16 21.1547C220.938 21.0359 220.685 20.9846 220.434 21.0073C216.833 20.9974 213.25 21.5151 209.803 22.5437C208.419 23.3787 211.625 46.8923 212.84 49.0967ZM210.511 23.3453C213.629 22.9039 216.782 22.7585 219.928 22.9111C220.13 25.3827 219.59 46.7921 219.556 47.1261C218.13 47.6317 216.608 47.8143 215.101 47.6605C214.865 46.8923 214.46 44.8215 213.954 42.2163C212.467 35.9913 211.318 29.6919 210.511 23.3453ZM37.9476 173.745C38.2714 173.91 38.63 173.995 38.9938 173.995C39.3576 173.995 39.7162 173.91 40.04 173.745C41.3439 172.95 42.3781 171.787 43.0101 170.405C43.0959 170.184 43.1224 169.945 43.0869 169.711C43.0514 169.477 42.9551 169.256 42.8075 169.069C41.1875 167.166 23.5025 146.892 21.3425 148.161C18.6905 149.86 16.1744 151.758 13.8163 153.839C13.7213 153.923 13.6451 154.026 13.5928 154.141C13.5405 154.256 13.5131 154.381 13.5125 154.507C13.445 156.244 33.0876 171.808 37.9476 173.745ZM21.7475 149.029C24.2113 150.8 32.5138 160.953 40.2088 169.938C39.8778 170.454 39.4679 170.916 38.9938 171.307C30.9035 166.183 23.179 160.514 15.875 154.34C17.706 152.438 19.6683 150.663 21.7475 149.029ZM74.7688 75.3491C75.5113 62.3899 83.1388 56.3779 91.1038 54.8415C88.8426 63.0579 89.2138 73.7459 97.415 75.1153C101.33 75.7499 103.254 73.7459 106.089 71.4079C118.205 61.3879 108.418 51.3679 94.7488 52.0693C99.845 38.2417 111.624 26.9859 127.25 26.6185C127.393 26.6185 127.531 26.5622 127.632 26.4619C127.733 26.3617 127.79 26.2258 127.79 26.0841C127.79 25.9423 127.733 25.8064 127.632 25.7062C127.531 25.606 127.393 25.5497 127.25 25.5497C110.375 25.2157 97.1113 37.2397 91.8801 52.2697C82.8688 53.8061 73.925 60.4861 73.6888 75.1487C73.6755 75.2188 73.6763 75.2909 73.6912 75.3608C73.706 75.4307 73.7346 75.497 73.7754 75.5559C73.8161 75.6148 73.8682 75.6652 73.9286 75.7042C73.989 75.7433 74.0566 75.7701 74.1275 75.7833C74.1985 75.7964 74.2713 75.7956 74.3419 75.7809C74.4125 75.7662 74.4795 75.7379 74.539 75.6976C74.5986 75.6573 74.6495 75.6057 74.6889 75.5459C74.7284 75.4861 74.7555 75.4192 74.7688 75.3491ZM93.9725 54.4407C99.0013 54.1067 106.494 55.6431 108.553 60.1521C109.734 62.7239 108.553 65.8969 104.368 69.3705C103.231 70.4969 101.935 71.4533 100.52 72.2095C95.4576 74.3471 89.855 68.1681 93.9725 54.4407ZM103.625 526.817C100.364 525.953 96.9619 525.742 93.6179 526.199C90.2739 526.655 87.0559 527.769 84.1532 529.474C81.2506 531.18 78.722 533.442 76.7163 536.129C74.7105 538.816 73.268 541.873 72.4738 545.12C70.9745 551.866 72.2443 558.924 76.004 564.743C79.7636 570.562 85.7051 574.665 92.5213 576.149C99.3375 577.632 106.47 576.376 112.35 572.655C118.23 568.934 122.376 563.055 123.875 556.309C124.515 553.056 124.499 549.709 123.826 546.462C123.154 543.215 121.838 540.132 119.956 537.39C118.073 534.648 115.661 532.303 112.858 530.488C110.055 528.673 106.917 527.426 103.625 526.817ZM114.054 554.038C112.7 559.383 109.458 564.072 104.914 567.257C100.371 570.443 94.8257 571.914 89.2813 571.406C84.1918 569.438 79.9666 565.757 77.3492 561.01C74.7317 556.263 73.8897 550.755 74.9713 545.454C76.2342 539.979 79.4459 535.138 84.0194 531.814C88.5928 528.49 94.2224 526.906 99.8788 527.351C105.019 529.453 109.245 533.281 111.813 538.163C114.381 543.044 115.127 548.666 113.919 554.038H114.054Z" fill="black"/>
<path d="M148.58 536.335C145.642 535.332 142.493 535.091 139.434 535.634C138.166 532.757 136.605 530.015 134.776 527.451C136.97 525.48 142.977 520.003 141.526 517.431C136.361 511.317 130.229 506.072 123.369 501.9C120.504 500.312 117.349 499.301 114.087 498.927C111.927 499.228 106.797 507.544 105.65 509.415C104.907 509.415 102.275 508.58 102.072 508.48C102.072 506.075 101.364 497.391 99.17 496.389C96.7168 495.495 94.1694 494.879 91.5762 494.552C89.18 494.184 67.6137 498.092 66.0275 500.965C64.9812 502.902 67.4112 510.216 68.12 512.254C66.2998 513.245 64.5518 514.361 62.8887 515.594C59.5137 517.965 60.425 517.865 59.8175 517.598C59.0832 517.251 58.2966 517.025 57.4887 516.93C54.7927 515.365 51.6317 514.775 48.545 515.26C45.44 516.262 38.1162 532.762 36.935 537.003C36.5484 538.073 36.4439 539.223 36.6312 540.343C37.4412 542.548 42.8412 544.318 45.1025 545.019C44.478 549.317 44.478 553.681 45.1025 557.979C42.1325 558.78 35.9562 560.584 36.2937 563.59C36.6312 566.596 44.5287 586.435 47.8025 588.005C49.5959 588.998 51.579 589.608 53.6248 589.798C55.6706 589.988 57.7339 589.753 59.6825 589.107C60.7799 588.565 61.8397 587.951 62.855 587.27C64.205 588.272 65.6225 589.174 67.0737 590.042C66.0275 592.614 63.6987 598.359 64.4412 600.964C64.8125 602.334 65.9262 602.768 67.4787 603.336C71.765 604.872 94.85 610.35 98.36 609.749C99.6762 609.548 100.385 608.179 100.79 606.876C101.54 603.911 101.981 600.878 102.106 597.825C103.84 597.655 105.563 597.399 107.27 597.056C108.312 598.872 109.646 600.507 111.219 601.899C112.94 603.102 114.391 602.501 116.349 601.265C117.294 602.467 118.711 604.137 120.23 604.304C124.044 604.738 139.805 590.043 141.425 587.036C142.775 584.531 137.847 580.056 135.654 578.085C138.027 574.551 139.89 570.706 141.189 566.662C143.623 567.025 146.086 567.16 148.546 567.063C149.66 567.063 150.942 566.662 151.415 565.627C153.474 560.984 152.866 543.383 151.415 538.907C151.212 537.604 149.694 536.736 148.58 536.335ZM149.39 539.408C150.537 543.75 150.909 560.149 149.221 564.391C146.303 564.676 143.359 564.541 140.48 563.99C140.173 563.938 139.857 564.002 139.594 564.169C139.332 564.336 139.142 564.594 139.062 564.892C137.718 569.408 135.632 573.673 132.886 577.517C132.691 577.772 132.603 578.092 132.64 578.41C132.678 578.727 132.839 579.018 133.089 579.221C135.457 581.078 137.469 583.34 139.029 585.901C137.341 588.64 124.145 600.597 120.5 601.599C119.96 601.599 118.475 599.595 118.104 599.06C116.857 597.207 115.73 595.277 114.729 593.282C114.583 592.992 114.332 592.765 114.026 592.648C113.72 592.531 113.381 592.53 113.075 592.648C103.287 596.288 99.575 594.151 99.575 596.555C99.5794 600.156 98.9865 603.733 97.82 607.143C89.8886 606.29 82.0779 604.565 74.5325 602C74.8969 598.434 75.9027 594.961 77.5025 591.746C78.515 589.508 74.465 590.143 66.905 582.527C66.6617 582.304 66.3422 582.181 66.0106 582.181C65.679 582.181 65.3596 582.304 65.1162 582.527C61.7412 585.266 57.3537 587.938 56.4762 587.504C54.755 586.669 46.8237 568.867 46.3512 565.26C48.7517 563.604 51.4768 562.466 54.35 561.92C54.6564 561.834 54.921 561.641 55.0948 561.377C55.2685 561.113 55.3397 560.796 55.295 560.484C54.4679 555.754 54.4679 550.918 55.295 546.188C55.3466 545.897 55.2847 545.597 55.1219 545.349C54.9591 545.101 54.7074 544.924 54.4175 544.852C51.8732 544.192 49.4236 543.216 47.1275 541.947C46.385 541.412 46.4525 541.445 46.52 540.878C48.7045 533.081 52.2078 525.706 56.8812 519.067C58.7037 518.566 63.6312 522.14 65.3187 523.409C65.4951 523.579 65.7311 523.674 65.9769 523.674C66.2226 523.674 66.4587 523.579 66.635 523.409C68.1857 521.818 69.8555 520.344 71.63 519.001C76.76 515.16 78.1437 515.661 77.705 514.325C76.1535 510.974 75.282 507.354 75.14 503.67C75.6631 503.24 76.2566 502.901 76.895 502.668C80.0458 501.435 83.2831 500.43 86.5812 499.662C90.5789 498.56 94.6877 497.899 98.8325 497.691C99.5412 497.992 100.182 501.031 100.351 501.967C101.6 508.647 100.756 510.016 101.735 510.116C111.354 511.051 113.311 513.69 113.986 512.521C115.858 509.282 118.039 506.229 120.5 503.403C121.209 502.701 121.175 502.367 123.301 503.57C129.653 507.678 135.342 512.711 140.176 518.5C140.682 519.368 136.295 523.977 133.089 526.683C131.975 527.651 133.561 528.085 136.464 533.563C139.366 539.041 138.691 540.577 140.244 540.243C143.237 539.534 146.317 539.253 149.39 539.408ZM617.806 260.318C610.731 257.458 603.312 255.516 595.734 254.539C590.199 253.671 583.685 252.803 578.184 252.101C583.483 244.686 599.176 225.916 601.809 221.34C602.551 220.104 601.134 218.367 600.088 217.332C594.215 211.119 582.875 208.781 574.167 207.445C569.172 206.644 548.315 204.105 544.771 205.775C540.519 207.779 509.064 254.539 508.119 261.654C508.119 262.856 508.524 263.324 509.705 263.758C514.666 265.561 537.042 268.367 542.037 269.536C535.287 281.226 505.284 320.738 502.347 326.316C501.639 327.719 502.077 328.554 502.921 328.821C505.958 330.014 509.084 330.975 512.27 331.693C513.485 332.061 516.151 330.424 520.032 328.086C537.447 317.732 612.17 268.901 617.908 262.589C618.066 262.441 618.19 262.261 618.272 262.061C618.354 261.861 618.391 261.646 618.381 261.43C618.372 261.215 618.316 261.004 618.216 260.812C618.117 260.62 617.977 260.451 617.806 260.318ZM545.278 300.398C516.59 319.135 506.904 324.613 506.566 324.846C511.19 317.866 539.911 278.921 544.839 269.603C544.924 269.423 544.969 269.226 544.968 269.027C544.967 268.828 544.921 268.632 544.834 268.453C544.747 268.273 544.62 268.116 544.463 267.991C544.306 267.866 544.123 267.778 543.928 267.732C540.553 266.53 515.982 263.925 510.178 261.887C510.92 255.675 541.565 208.715 545.278 206.844C548.99 204.974 585.001 209.216 591.751 213.992C588.208 220.839 568.632 244.82 565.46 250.398C564.819 251.533 564.616 252.636 565.865 252.936C567.114 253.237 598.839 256.911 605.757 259.149C597.32 266.129 554.728 294.118 545.278 300.264V300.398ZM328.771 96.1901C328.771 96.4907 328.974 96.8581 329.48 98.7953C329.613 99.2155 329.905 99.5685 330.295 99.7802C330.685 99.9919 331.143 100.046 331.572 99.9309C332.002 99.8068 332.364 99.519 332.58 99.1307C332.795 98.7423 332.845 98.2853 332.72 97.8601C332.382 96.5575 332.079 95.4553 331.876 94.9209C331.68 94.5541 331.352 94.273 330.957 94.1323C330.563 93.9916 330.129 94.0015 329.741 94.16C329.354 94.3185 329.039 94.6143 328.86 94.9896C328.681 95.3649 328.649 95.7929 328.771 96.1901Z" fill="black"/>
</svg>
