<svg width="40" height="40" viewBox="0 0 40 40" fill="none" xmlns="http://www.w3.org/2000/svg">
<path d="M15.6289 27.3333H12.0733V15.78H15.6289V27.3333ZM13.8511 14.2978C12.5681 14.2978 11.9267 13.7052 11.9267 12.52C11.9227 12.2823 11.9703 12.0466 12.0662 11.829C12.1621 11.6115 12.304 11.4174 12.4822 11.26C12.853 10.9147 13.3446 10.7288 13.8511 10.7422C15.1341 10.7422 15.7756 11.3356 15.7756 12.5222C15.7756 14.3022 15.1356 14.2978 13.8511 14.2978ZM28.8156 27.3333H25.1867V20.8889C25.1867 19.2104 24.5933 18.3711 23.4067 18.3711C22.4704 18.3711 21.8526 18.84 21.5533 19.7778C21.457 19.9274 21.4081 20.2237 21.4067 20.6667V27.3333H17.7778V19.4822C17.7778 17.7044 17.7533 16.4704 17.7044 15.78H20.8156L21.0378 17.3333C21.8533 16.0978 23.0378 15.4822 24.6667 15.4822C25.9037 15.4822 26.9037 15.9141 27.6667 16.7778C28.4341 17.6415 28.8178 18.8889 28.8178 20.52V27.3333H28.8156ZM20 40C8.97111 40 0 31.0289 0 20C0 8.97111 8.97111 0 20 0C31.0289 0 40 8.97111 40 20C40 31.0289 31.0289 40 20 40ZM20 4.44444C11.4244 4.44444 4.44444 11.4244 4.44444 20C4.44444 28.5756 11.4244 35.5556 20 35.5556C28.5756 35.5556 35.5556 28.5756 35.5556 20C35.5556 11.4244 28.5756 4.44444 20 4.44444Z" fill="#C3C3C3"/>
</svg>
